<mxfile host="app.diagrams.net" modified="2021-10-26T12:57:04.844Z" agent="5.0 (Windows NT 10.0; Win64; x64) AppleWebKit/537.36 (KHTML, like Gecko) Chrome/94.0.4606.81 Safari/537.36" etag="R3EUKB6wMMmfWlK_YFvg" version="15.5.9" type="github">
  <diagram id="TSHFwj_1uguYBgR-W8nd" name="Page-1">
    <mxGraphModel dx="868" dy="482" grid="1" gridSize="10" guides="1" tooltips="1" connect="1" arrows="1" fold="1" page="1" pageScale="1" pageWidth="827" pageHeight="1169" math="0" shadow="0">
      <root>
        <mxCell id="0" />
        <mxCell id="1" parent="0" />
        <mxCell id="TrFmlBujuE3ZbRby1JHc-16" value="用户" style="shape=umlLifeline;perimeter=lifelinePerimeter;container=1;collapsible=0;recursiveResize=0;rounded=0;shadow=0;strokeWidth=1;" vertex="1" parent="1">
          <mxGeometry x="45" y="40" width="100" height="280" as="geometry" />
        </mxCell>
        <mxCell id="TrFmlBujuE3ZbRby1JHc-17" value="" style="points=[];perimeter=orthogonalPerimeter;rounded=0;shadow=0;strokeWidth=1;" vertex="1" parent="TrFmlBujuE3ZbRby1JHc-16">
          <mxGeometry x="45" y="70" width="10" height="200" as="geometry" />
        </mxCell>
        <mxCell id="TrFmlBujuE3ZbRby1JHc-18" value="文件" style="shape=umlLifeline;perimeter=lifelinePerimeter;container=1;collapsible=0;recursiveResize=0;rounded=0;shadow=0;strokeWidth=1;" vertex="1" parent="1">
          <mxGeometry x="195" y="40" width="100" height="280" as="geometry" />
        </mxCell>
        <mxCell id="TrFmlBujuE3ZbRby1JHc-20" value="拦截器" style="shape=umlLifeline;perimeter=lifelinePerimeter;container=1;collapsible=0;recursiveResize=0;rounded=0;shadow=0;strokeWidth=1;" vertex="1" parent="TrFmlBujuE3ZbRby1JHc-18">
          <mxGeometry width="100" height="270" as="geometry" />
        </mxCell>
        <mxCell id="TrFmlBujuE3ZbRby1JHc-21" value="" style="points=[];perimeter=orthogonalPerimeter;rounded=0;shadow=0;strokeWidth=1;" vertex="1" parent="TrFmlBujuE3ZbRby1JHc-20">
          <mxGeometry x="45" y="70" width="10" height="70" as="geometry" />
        </mxCell>
        <mxCell id="TrFmlBujuE3ZbRby1JHc-36" value="" style="endArrow=classic;html=1;rounded=0;edgeStyle=orthogonalEdgeStyle;entryX=0.2;entryY=0.633;entryDx=0;entryDy=0;entryPerimeter=0;" edge="1" parent="TrFmlBujuE3ZbRby1JHc-20">
          <mxGeometry width="50" height="50" relative="1" as="geometry">
            <mxPoint x="43" y="80" as="sourcePoint" />
            <mxPoint x="45" y="94.99000000000001" as="targetPoint" />
            <Array as="points">
              <mxPoint x="18" y="80" />
              <mxPoint x="18" y="96" />
              <mxPoint x="43" y="96" />
              <mxPoint x="43" y="95" />
            </Array>
          </mxGeometry>
        </mxCell>
        <mxCell id="TrFmlBujuE3ZbRby1JHc-22" value="部门Service" style="shape=umlLifeline;perimeter=lifelinePerimeter;container=1;collapsible=0;recursiveResize=0;rounded=0;shadow=0;strokeWidth=1;" vertex="1" parent="1">
          <mxGeometry x="430" y="40" width="100" height="280" as="geometry" />
        </mxCell>
        <mxCell id="TrFmlBujuE3ZbRby1JHc-34" value="" style="points=[];perimeter=orthogonalPerimeter;rounded=0;shadow=0;strokeWidth=1;" vertex="1" parent="TrFmlBujuE3ZbRby1JHc-22">
          <mxGeometry x="44" y="210" width="10" height="40" as="geometry" />
        </mxCell>
        <mxCell id="TrFmlBujuE3ZbRby1JHc-24" value="上传请求" style="verticalAlign=bottom;endArrow=block;shadow=0;strokeWidth=1;exitX=1.1;exitY=0.108;exitDx=0;exitDy=0;exitPerimeter=0;" edge="1" parent="1">
          <mxGeometry relative="1" as="geometry">
            <mxPoint x="101" y="109.99999999999997" as="sourcePoint" />
            <mxPoint x="240" y="110" as="targetPoint" />
          </mxGeometry>
        </mxCell>
        <mxCell id="TrFmlBujuE3ZbRby1JHc-31" value="服务器" style="shape=umlLifeline;perimeter=lifelinePerimeter;container=1;collapsible=0;recursiveResize=0;rounded=0;shadow=0;strokeWidth=1;" vertex="1" parent="1">
          <mxGeometry x="540" y="40" width="100" height="280" as="geometry" />
        </mxCell>
        <mxCell id="TrFmlBujuE3ZbRby1JHc-32" value="" style="points=[];perimeter=orthogonalPerimeter;rounded=0;shadow=0;strokeWidth=1;" vertex="1" parent="TrFmlBujuE3ZbRby1JHc-31">
          <mxGeometry x="45" y="180" width="10" height="20" as="geometry" />
        </mxCell>
        <mxCell id="TrFmlBujuE3ZbRby1JHc-37" value="&lt;div style=&quot;text-align: center&quot;&gt;&lt;font face=&quot;helvetica&quot;&gt;&lt;span style=&quot;font-size: 11px ; background-color: rgb(255 , 255 , 255)&quot;&gt;校验用户&lt;br&gt;登录状态&lt;/span&gt;&lt;/font&gt;&lt;/div&gt;" style="text;whiteSpace=wrap;html=1;" vertex="1" parent="1">
          <mxGeometry x="155" y="110" width="70" height="30" as="geometry" />
        </mxCell>
        <mxCell id="TrFmlBujuE3ZbRby1JHc-38" value="用户未登录" style="html=1;verticalAlign=bottom;endArrow=open;dashed=1;endSize=8;rounded=0;" edge="1" parent="1">
          <mxGeometry relative="1" as="geometry">
            <mxPoint x="240" y="169" as="sourcePoint" />
            <mxPoint x="100" y="169" as="targetPoint" />
          </mxGeometry>
        </mxCell>
        <mxCell id="TrFmlBujuE3ZbRby1JHc-39" value="返回部门code" style="html=1;verticalAlign=bottom;endArrow=open;dashed=1;endSize=8;rounded=0;exitX=0.1;exitY=0.775;exitDx=0;exitDy=0;exitPerimeter=0;entryX=1.1;entryY=0.228;entryDx=0;entryDy=0;entryPerimeter=0;" edge="1" parent="1" source="TrFmlBujuE3ZbRby1JHc-34">
          <mxGeometry relative="1" as="geometry">
            <mxPoint x="499" y="281" as="sourcePoint" />
            <mxPoint x="369" y="281.03999999999996" as="targetPoint" />
          </mxGeometry>
        </mxCell>
        <mxCell id="TrFmlBujuE3ZbRby1JHc-40" value="文件Service" style="shape=umlLifeline;perimeter=lifelinePerimeter;container=1;collapsible=0;recursiveResize=0;rounded=0;shadow=0;strokeWidth=1;" vertex="1" parent="1">
          <mxGeometry x="314" y="40" width="100" height="280" as="geometry" />
        </mxCell>
        <mxCell id="TrFmlBujuE3ZbRby1JHc-42" value="" style="points=[];perimeter=orthogonalPerimeter;rounded=0;shadow=0;strokeWidth=1;" vertex="1" parent="TrFmlBujuE3ZbRby1JHc-40">
          <mxGeometry x="45" y="120" width="10" height="150" as="geometry" />
        </mxCell>
        <mxCell id="TrFmlBujuE3ZbRby1JHc-48" value="" style="endArrow=classic;html=1;rounded=0;edgeStyle=orthogonalEdgeStyle;entryX=0.2;entryY=0.633;entryDx=0;entryDy=0;entryPerimeter=0;" edge="1" parent="TrFmlBujuE3ZbRby1JHc-40">
          <mxGeometry width="50" height="50" relative="1" as="geometry">
            <mxPoint x="43" y="142" as="sourcePoint" />
            <mxPoint x="45" y="156.99" as="targetPoint" />
            <Array as="points">
              <mxPoint x="18" y="142" />
              <mxPoint x="18" y="158" />
              <mxPoint x="43" y="158" />
              <mxPoint x="43" y="157" />
            </Array>
          </mxGeometry>
        </mxCell>
        <mxCell id="TrFmlBujuE3ZbRby1JHc-52" value="" style="points=[];perimeter=orthogonalPerimeter;rounded=0;shadow=0;strokeWidth=1;" vertex="1" parent="TrFmlBujuE3ZbRby1JHc-40">
          <mxGeometry x="55" y="180" width="10" height="20" as="geometry" />
        </mxCell>
        <mxCell id="TrFmlBujuE3ZbRby1JHc-49" value="&lt;div style=&quot;text-align: center&quot;&gt;&lt;font face=&quot;helvetica&quot;&gt;&lt;span style=&quot;font-size: 11px ; background-color: rgb(255 , 255 , 255)&quot;&gt;检验文件md5码&lt;/span&gt;&lt;/font&gt;&lt;/div&gt;" style="text;whiteSpace=wrap;html=1;" vertex="1" parent="TrFmlBujuE3ZbRby1JHc-40">
          <mxGeometry x="-44" y="130" width="70" height="40" as="geometry" />
        </mxCell>
        <mxCell id="TrFmlBujuE3ZbRby1JHc-26" value="获取用户所属部门" style="verticalAlign=bottom;endArrow=block;shadow=0;strokeWidth=1;exitX=1.1;exitY=0.111;exitDx=0;exitDy=0;exitPerimeter=0;" edge="1" parent="1" target="TrFmlBujuE3ZbRby1JHc-34">
          <mxGeometry relative="1" as="geometry">
            <mxPoint x="369" y="259.98" as="sourcePoint" />
            <mxPoint x="489" y="260" as="targetPoint" />
            <Array as="points" />
          </mxGeometry>
        </mxCell>
        <mxCell id="TrFmlBujuE3ZbRby1JHc-46" value="用户已登录" style="verticalAlign=bottom;endArrow=block;shadow=0;strokeWidth=1;exitX=0.9;exitY=0.714;exitDx=0;exitDy=0;exitPerimeter=0;entryX=0;entryY=0;entryDx=0;entryDy=0;entryPerimeter=0;" edge="1" parent="1" source="TrFmlBujuE3ZbRby1JHc-21" target="TrFmlBujuE3ZbRby1JHc-42">
          <mxGeometry relative="1" as="geometry">
            <mxPoint x="226" y="160" as="sourcePoint" />
            <mxPoint x="370" y="160" as="targetPoint" />
          </mxGeometry>
        </mxCell>
        <mxCell id="TrFmlBujuE3ZbRby1JHc-50" value="服务器已有相同文件，上传完成" style="html=1;verticalAlign=bottom;endArrow=open;dashed=1;endSize=8;rounded=0;" edge="1" parent="1">
          <mxGeometry relative="1" as="geometry">
            <mxPoint x="360" y="222" as="sourcePoint" />
            <mxPoint x="100" y="222" as="targetPoint" />
          </mxGeometry>
        </mxCell>
        <mxCell id="TrFmlBujuE3ZbRby1JHc-51" value="上传文件" style="verticalAlign=bottom;endArrow=block;shadow=0;strokeWidth=1;exitX=1;exitY=0.5;exitDx=0;exitDy=0;exitPerimeter=0;entryX=0.2;entryY=0.5;entryDx=0;entryDy=0;entryPerimeter=0;" edge="1" parent="1" source="TrFmlBujuE3ZbRby1JHc-52" target="TrFmlBujuE3ZbRby1JHc-32">
          <mxGeometry relative="1" as="geometry">
            <mxPoint x="375" y="270.03999999999996" as="sourcePoint" />
            <mxPoint x="625" y="275" as="targetPoint" />
            <Array as="points" />
          </mxGeometry>
        </mxCell>
        <mxCell id="TrFmlBujuE3ZbRby1JHc-53" value="文件数据表" style="shape=umlLifeline;perimeter=lifelinePerimeter;container=1;collapsible=0;recursiveResize=0;rounded=0;shadow=0;strokeWidth=1;" vertex="1" parent="1">
          <mxGeometry x="650" y="40" width="100" height="280" as="geometry" />
        </mxCell>
        <mxCell id="TrFmlBujuE3ZbRby1JHc-54" value="" style="points=[];perimeter=orthogonalPerimeter;rounded=0;shadow=0;strokeWidth=1;" vertex="1" parent="TrFmlBujuE3ZbRby1JHc-53">
          <mxGeometry x="45" y="250" width="10" height="20" as="geometry" />
        </mxCell>
        <mxCell id="TrFmlBujuE3ZbRby1JHc-56" value="更新文件数据" style="html=1;verticalAlign=bottom;endArrow=block;rounded=0;entryX=0;entryY=0.8;entryDx=0;entryDy=0;entryPerimeter=0;" edge="1" parent="1" source="TrFmlBujuE3ZbRby1JHc-42" target="TrFmlBujuE3ZbRby1JHc-54">
          <mxGeometry width="80" relative="1" as="geometry">
            <mxPoint x="320" y="360" as="sourcePoint" />
            <mxPoint x="400" y="360" as="targetPoint" />
          </mxGeometry>
        </mxCell>
      </root>
    </mxGraphModel>
  </diagram>
</mxfile>
